<?xml version="1.0" encoding="UTF-8"?>
<!DOCTYPE svg PUBLIC "-//W3C//DTD SVG 1.1//EN" "http://www.w3.org/Graphics/SVG/1.1/DTD/svg11.dtd">
<!-- Creator: CorelDRAW 2018 (64-Bit) -->
<svg xmlns="http://www.w3.org/2000/svg" xml:space="preserve" width="100%" height="100%" version="1.1" shape-rendering="geometricPrecision" text-rendering="geometricPrecision" image-rendering="optimizeQuality" fill-rule="evenodd" clip-rule="evenodd"
viewBox="0 0 499.99 166.66"
 xmlns:xlink="http://www.w3.org/1999/xlink">
 <g id="Layer_x0020_1">
  <metadata id="CorelCorpID_0Corel-Layer"/>
  <path fill="black" d="M78.78 96.88c-24.28,-17.69 -15.38,-37.91 -35.65,-36.09 1.3,-2.27 2.87,-3.87 4.66,-4.92 4.31,-6.86 9.97,-7.78 23.52,-2.01 24.46,4.71 55.67,-29.16 73.09,-44.11 -2.35,28.87 -20.86,54.74 -57.24,77.29 3.56,-0.59 6.83,-1.59 9.66,-3.28 31.65,17.34 48.94,43.99 60.66,73.97 -12.5,-22.56 -23.89,-35.71 -34.45,-41.74 9.22,11.88 17.06,25.15 21.91,41.41 -33.69,-55.19 -50.89,-49.08 -66.17,-60.52z"/>
  <path fill="black" fill-rule="nonzero" d="M166.22 99.49l20.76 0c5.21,0 9.1,-1.05 11.67,-3.15 2.57,-2.14 3.85,-5.33 3.85,-9.56 0,-2.18 -0.5,-4.08 -1.52,-5.72 -1.01,-1.63 -2.41,-2.86 -4.2,-3.68l0 -0.11c1.32,-0.78 2.35,-1.83 3.09,-3.15 0.74,-1.28 1.11,-2.78 1.11,-4.49 -0.07,-3.22 -1.22,-5.85 -3.44,-7.87 -2.22,-1.98 -5.13,-3.01 -8.75,-3.09l-22.57 0 0 40.83zm8.93 -24.5l0 -8.52 12.19 0c1.56,0 2.72,0.37 3.5,1.11 0.81,0.74 1.22,1.79 1.22,3.15 0,1.36 -0.41,2.41 -1.22,3.15 -0.78,0.74 -1.94,1.11 -3.5,1.11l-12.19 0zm0 16.68l0 -9.74 13.18 0c1.71,0 3.01,0.41 3.91,1.22 0.89,0.85 1.34,2.04 1.34,3.56 0,1.67 -0.43,2.91 -1.28,3.73 -0.85,0.81 -2.2,1.22 -4.02,1.22l-13.12 0zm45.43 8.69c2.18,0 4.14,-0.33 5.89,-0.99 1.75,-0.62 3.27,-1.56 4.55,-2.8l0.11 0 0 2.92 8.34 0 0 -30.91 -8.63 0 0 16.39c-0.04,2.26 -0.78,4.06 -2.22,5.43 -1.48,1.4 -3.42,2.12 -5.83,2.16 -2.49,0 -4.37,-0.66 -5.66,-1.98 -1.28,-1.28 -1.93,-3.15 -1.93,-5.6l0 -16.39 -8.63 0 0 17.67c0.04,4.51 1.26,7.97 3.67,10.38 2.45,2.45 5.89,3.69 10.32,3.73zm24.73 -0.87l8.34 0 0 -17.15c0.04,-2.22 0.66,-3.95 1.87,-5.19 1.17,-1.24 2.82,-1.87 4.96,-1.87 1.94,0 3.5,0.62 4.67,1.87 1.21,1.24 1.83,2.98 1.87,5.19l0 17.15 7.99 0 0 -17.15c0.04,-2.22 0.64,-3.95 1.81,-5.19 1.2,-1.24 2.86,-1.87 4.96,-1.87 1.98,0 3.56,0.62 4.72,1.87 1.17,1.24 1.77,2.98 1.81,5.19l0 17.15 8.34 0 0 -18.49c-0.08,-4 -1.38,-7.21 -3.91,-9.62 -2.56,-2.37 -5.96,-3.6 -10.2,-3.68 -1.94,0 -3.77,0.37 -5.48,1.11 -1.75,0.7 -3.29,1.77 -4.61,3.21l-0.11 0c-1.05,-1.32 -2.47,-2.37 -4.26,-3.15 -1.79,-0.78 -3.63,-1.17 -5.54,-1.17 -1.98,0 -3.79,0.35 -5.43,1.05 -1.63,0.7 -2.99,1.63 -4.08,2.8l-0.11 0 0 -2.97 -7.58 0 0 30.91zm72.96 0.87c3.31,0 6.17,-0.54 8.57,-1.63 2.41,-1.09 4.49,-2.62 6.24,-4.61l-5.37 -5.37c-1.44,1.56 -2.91,2.7 -4.43,3.44 -1.48,0.78 -3.17,1.17 -5.07,1.17 -2.61,-0.04 -4.67,-0.64 -6.19,-1.81 -1.56,-1.17 -2.41,-2.76 -2.57,-4.78l25.08 0 0 -2.45c-0.04,-4.74 -1.54,-8.67 -4.49,-11.78 -2.96,-3.11 -7.06,-4.72 -12.31,-4.84 -4.98,0.08 -9,1.61 -12.07,4.61 -3.07,2.99 -4.65,6.92 -4.72,11.78 0.04,4.98 1.57,8.91 4.61,11.78 2.99,2.91 7.23,4.41 12.71,4.49zm-8.69 -19.65c0.27,-1.83 1.15,-3.29 2.63,-4.37 1.44,-1.05 3.34,-1.59 5.71,-1.63 2.33,0.04 4.24,0.58 5.72,1.63 1.44,1.09 2.28,2.55 2.51,4.37l-16.56 0zm52.84 -4.78l0 -7.35 -9.97 0 0 -7.76 -8.63 0 0 7.76 -7.29 0 0 7.35 7.29 0 0 13.59c-0.04,3.38 0.8,5.89 2.51,7.52 1.71,1.63 4.51,2.45 8.4,2.45l6.53 0 0 -7.99 -5.66 0c-1.24,0 -2.08,-0.17 -2.51,-0.52 -0.46,-0.39 -0.68,-1.05 -0.64,-1.98l0 -13.06 9.97 0zm4.09 23.56l8.63 0 0 -14.11c0.04,-3.19 0.7,-5.56 1.98,-7.11 1.32,-1.56 3.15,-2.33 5.48,-2.33 0.82,0 1.57,0.04 2.28,0.12 0.66,0.11 1.4,0.29 2.22,0.52l1.81 -7.76c-0.85,-0.27 -1.71,-0.47 -2.57,-0.58 -0.81,-0.16 -1.65,-0.24 -2.51,-0.24 -1.87,0 -3.56,0.3 -5.07,0.88 -1.56,0.62 -2.9,1.52 -4.03,2.68l-0.11 0 0 -2.97 -8.11 0 0 30.91zm25.37 -35.98l8.93 0 0 -8.63 -8.93 0 0 8.63zm0.18 35.98l8.63 0 0 -30.91 -8.63 0 0 30.91zm14.46 13.12l8.63 0 0 -15.51 0.12 0c1.05,0.97 2.43,1.75 4.14,2.33 1.75,0.62 3.59,0.93 5.54,0.93 4.67,-0.11 8.48,-1.67 11.43,-4.67 2.96,-3.03 4.47,-6.92 4.55,-11.67 -0.08,-4.74 -1.61,-8.63 -4.61,-11.67 -2.96,-2.99 -6.77,-4.55 -11.43,-4.67 -1.98,0 -3.85,0.29 -5.6,0.88 -1.71,0.62 -3.17,1.54 -4.37,2.74l-0.12 0 0 -2.74 -8.28 0 0 44.03zm17.09 -19.83c-2.45,-0.04 -4.45,-0.72 -6.01,-2.04 -1.59,-1.28 -2.41,-2.88 -2.45,-4.78l0 -3.91c0.08,-1.87 0.91,-3.44 2.51,-4.72 1.59,-1.28 3.56,-1.94 5.89,-1.98 2.65,0.04 4.74,0.83 6.3,2.39 1.59,1.56 2.41,3.66 2.45,6.3 -0.04,2.65 -0.85,4.74 -2.45,6.3 -1.59,1.59 -3.67,2.41 -6.24,2.45z"/>
 </g>
</svg>
